<?xml version="1.0" encoding="utf-8"?>
<!-- Generator: Adobe Illustrator 23.0.2, SVG Export Plug-In . SVG Version: 6.00 Build 0)  -->
<svg version="1.1" id="Capa_1" xmlns="http://www.w3.org/2000/svg" xmlns:xlink="http://www.w3.org/1999/xlink" x="0px" y="0px"
	 width="270px" height="90px" viewBox="0 0 270 90" style="enable-background:new 0 0 270 90;" xml:space="preserve">
<style type="text/css">
	.st0{clip-path:url(#XMLID_6_);fill:#E2F0F9;}
	.st1{opacity:0.5;}
	.st2{fill:#FFFFFF;}
	.st3{fill:#1D4775;}
	
		.st4{fill:none;stroke:#043543;stroke-width:1.7683829;stroke-linecap:round;stroke-linejoin:round;stroke-miterlimit:10;stroke-dasharray:2.8294127,2.8294127;}
	.st5{fill:none;stroke:#043543;stroke-width:1.7683829;stroke-linecap:round;stroke-linejoin:round;}
	
		.st6{fill:none;stroke:#043543;stroke-width:1.7683829;stroke-linecap:round;stroke-linejoin:round;stroke-dasharray:2.853965,2.853965;}
	.st7{fill:#F5BE49;}
	.st8{fill:#CD2324;}
	.st9{fill:none;stroke:#FFFFFF;stroke-width:0.7073532;stroke-miterlimit:10;}
	.st10{fill:#E2E0E2;}
	.st11{fill:#EDEBED;}
	.st12{fill:#DB1500;}
	.st13{fill:#EA6868;}
	.st14{fill:#AB7656;stroke:#4C2C15;stroke-width:0.7073532;stroke-miterlimit:10;}
	.st15{fill:#84451A;stroke:#4C2C15;stroke-width:0.7073532;stroke-miterlimit:10;}
	.st16{fill:#204130;}
	.st17{fill:#4C2C15;}
	.st18{opacity:0.1;clip-path:url(#XMLID_10_);}
	.st19{opacity:0.8;}
	.st20{opacity:0.8;fill:#375B46;}
	.st21{opacity:0.8;fill:#8BA093;}
	.st22{opacity:0.8;fill:#B1BFB7;}
	.st23{opacity:0.8;fill:#DAE1DD;}
	.st24{fill:#FA561A;}
	.st25{fill:#E8E1CA;}
	.st26{fill:none;stroke:#3F8A8E;stroke-width:0.7073532;stroke-miterlimit:10;}
	.st27{fill:#D3C9AE;}
	.st28{fill:#C9B6AD;}
	.st29{fill:#2C5D89;}
	.st30{fill:#ED463E;}
	.st31{fill:#FACB70;}
	.st32{fill:#FAD589;}
	.st33{fill:#F9E79B;}
	.st34{fill:#BC3B2E;}
	.st35{fill:#7A2925;}
	.st36{fill:#F28686;}
	.st37{fill:#EDECDA;}
	.st38{fill:none;stroke:#EDECDA;stroke-width:0.3536766;stroke-linecap:round;stroke-linejoin:round;stroke-miterlimit:10;}
	.st39{fill:#C3433F;}
	.st40{fill:none;}
	.st41{fill-rule:evenodd;clip-rule:evenodd;fill:#001A79;}
	.st42{fill-rule:evenodd;clip-rule:evenodd;fill:#D61A00;}
	.st43{fill-rule:evenodd;clip-rule:evenodd;fill:#FFA700;}
</style>
<path class="st39" d="M247,42c0,12.7025986-9.4023285,23-21,23H46c-11.5981178,0-21-10.2974014-21-23l0,0
	c0-12.7026005,9.4018822-23,21-23h180C237.5976715,19,247,29.2973995,247,42L247,42z"/>
<g>
	<rect x="31.5" y="34.25" class="st40" width="213" height="28.5"/>
	<path class="st2" d="M63.9580078,35.1679688c0.3349609,0,0.7226563,0.0273438,1.1611328,0.0810547
		c0.4375,0.0537109,0.8486328,0.1494141,1.2324219,0.2880859c0.3847656,0.1386719,0.7080078,0.3183594,0.9726563,0.5400391
		c0.2636719,0.2216797,0.3955078,0.4951172,0.3955078,0.8193359c0,0.1914063-0.0537109,0.3535156-0.1621094,0.4853516
		s-0.2822266,0.1982422-0.5224609,0.1982422c-0.1796875,0-0.3623047-0.0361328-0.5488281-0.1074219
		c-0.1855469-0.0722656-0.3955078-0.1474609-0.6289063-0.2255859c-0.234375-0.078125-0.5039063-0.1533203-0.8105469-0.2255859
		c-0.3066406-0.0712891-0.6630859-0.1074219-1.0703125-0.1074219c-0.7929688,0-1.3779297,0.140625-1.7558594,0.4228516
		s-0.5664063,0.6689453-0.5664063,1.1611328c0,0.3359375,0.0839844,0.6181641,0.2519531,0.8457031
		c0.1679688,0.2285156,0.3925781,0.4238281,0.6748047,0.5859375c0.2822266,0.1611328,0.5996094,0.296875,0.9541016,0.4042969
		c0.3535156,0.1074219,0.7167969,0.2099609,1.0888672,0.3066406c0.4199219,0.1074219,0.8369141,0.2402344,1.2509766,0.3955078
		s0.7832031,0.3603516,1.1074219,0.6123047c0.3232422,0.2519531,0.5839844,0.5703125,0.7822266,0.953125
		c0.1982422,0.3847656,0.2978516,0.8710938,0.2978516,1.4589844c0,0.6113281-0.1152344,1.1601563-0.3427734,1.6464844
		s-0.5400391,0.9003906-0.9365234,1.2421875c-0.3955078,0.3417969-0.8691406,0.6054688-1.421875,0.7919922
		c-0.5517578,0.1855469-1.1513672,0.2783203-1.7988281,0.2783203c-0.3613281,0-0.78125-0.0332031-1.2607422-0.0986328
		s-0.9365234-0.1796875-1.3681641-0.3417969s-0.7978516-0.3779297-1.0976563-0.6474609
		c-0.3007813-0.2705078-0.4501953-0.6035156-0.4501953-1c0-0.2402344,0.0634766-0.4316406,0.1884766-0.5761719
		c0.1269531-0.1435547,0.3154297-0.2148438,0.5673828-0.2148438c0.2041016,0,0.3720703,0.0390625,0.5048828,0.1162109
		c0.1308594,0.078125,0.2451172,0.1650391,0.3417969,0.2607422c0.359375,0.3125,0.7675781,0.5224609,1.2236328,0.6308594
		c0.4560547,0.1074219,0.9238281,0.1621094,1.4033203,0.1621094c0.2763672,0,0.5673828-0.0214844,0.8730469-0.0634766
		c0.3066406-0.0419922,0.5859375-0.1289063,0.8378906-0.2607422c0.2519531-0.1328125,0.4609375-0.3212891,0.6298828-0.5673828
		c0.1669922-0.2451172,0.2519531-0.5791016,0.2519531-0.9990234c0-0.3837891-0.0751953-0.6992188-0.2255859-0.9453125
		s-0.3505859-0.453125-0.6025391-0.6210938s-0.5488281-0.3056641-0.8916016-0.4140625
		c-0.3417969-0.1074219-0.7109375-0.2148438-1.1064453-0.3232422C62.9375,41.9960938,62.5,41.8632813,62.0683594,41.7207031
		c-0.4326172-0.1445313-0.8164063-0.3398438-1.1523438-0.5859375s-0.609375-0.5576172-0.8193359-0.9355469
		C59.8867188,39.8203125,59.78125,39.3378906,59.78125,38.75s0.1083984-1.1035156,0.3242188-1.5478516
		c0.2167969-0.4443359,0.5097656-0.8154297,0.8828125-1.1162109c0.3710938-0.2998047,0.8125-0.5273438,1.3222656-0.6835938
		S63.3691406,35.1679688,63.9580078,35.1679688z"/>
	<path class="st2" d="M74.2167969,38.75c0.6845703,0,1.296875,0.1054688,1.8359375,0.3144531
		c0.5410156,0.2109375,1,0.5078125,1.3779297,0.8916016s0.6689453,0.8525391,0.8720703,1.4033203
		c0.2050781,0.5527344,0.3066406,1.1699219,0.3066406,1.8544922c0,0.7568359-0.1171875,1.4345703-0.3515625,2.0341797
		c-0.2333984,0.5996094-0.5576172,1.109375-0.9707031,1.5292969c-0.4140625,0.4208984-0.90625,0.7441406-1.4765625,0.9726563
		s-1.1914063,0.3417969-1.8632813,0.3417969c-0.7324219,0-1.3769531-0.1259766-1.9355469-0.3779297
		c-0.5566406-0.2519531-1.0253906-0.59375-1.4033203-1.0263672c-0.3779297-0.4316406-0.6630859-0.9296875-0.8544922-1.4941406
		c-0.1923828-0.5634766-0.2890625-1.1572266-0.2890625-1.78125c0-0.6835938,0.1113281-1.3105469,0.3339844-1.8808594
		c0.2216797-0.5703125,0.5390625-1.0625,0.953125-1.4765625s0.9160156-0.734375,1.5039063-0.9628906
		C72.84375,38.8642578,73.4980469,38.75,74.2167969,38.75z M74.0195313,46.4355469
		c0.4921875,0,0.9121094-0.0859375,1.2597656-0.2607422c0.3476563-0.1738281,0.6328125-0.4052734,0.8554688-0.6923828
		c0.2216797-0.2890625,0.3837891-0.6152344,0.4863281-0.9814453c0.1015625-0.3662109,0.1523438-0.7470703,0.1523438-1.1435547
		c0-0.4072266-0.0507813-0.7890625-0.1523438-1.1425781c-0.1025391-0.3535156-0.2587891-0.6621094-0.46875-0.9267578
		s-0.4804688-0.4707031-0.8105469-0.6210938c-0.3300781-0.1494141-0.7226563-0.2255859-1.1777344-0.2255859
		c-0.46875,0-0.8769531,0.078125-1.2246094,0.234375s-0.6386719,0.3691406-0.8730469,0.6386719
		c-0.234375,0.2705078-0.4111328,0.5917969-0.53125,0.9628906c-0.1191406,0.3730469-0.1796875,0.7744141-0.1796875,1.2070313
		c0,0.875,0.2246094,1.5869141,0.6748047,2.1328125S73.1435547,46.4355469,74.0195313,46.4355469z"/>
	<path class="st2" d="M80.3193359,46.8320313c-0.0126953-0.4316406-0.0244141-0.9355469-0.0361328-1.5117188
		s-0.0214844-1.2001953-0.0273438-1.8730469c-0.0058594-0.671875-0.0117188-1.3789063-0.0175781-2.1230469
		s-0.0087891-1.5058594-0.0087891-2.2861328c0-0.8525391,0.0058594-1.5839844,0.0175781-2.1962891
		c0.0126953-0.6113281,0.0458984-1.1152344,0.0986328-1.5117188c0.0546875-0.3964844,0.1416016-0.6875,0.2617188-0.8730469
		c0.1191406-0.1855469,0.2880859-0.2792969,0.5039063-0.2792969c0.2041016,0,0.3837891,0.0664063,0.5400391,0.1982422
		c0.1552734,0.1318359,0.2451172,0.4384766,0.2705078,0.9179688c0.046875,0.8642578,0.0771484,1.7607422,0.0898438,2.6904297
		c0.0117188,0.9306641,0.0175781,1.8457031,0.0175781,2.7460938c0,0.5390625,0,1.0585938,0,1.5566406
		s-0.0058594,0.9902344-0.0175781,1.4765625c-0.0126953,0.4853516-0.0244141,0.9804688-0.0371094,1.484375
		c-0.0117188,0.5039063-0.0292969,1.0253906-0.0527344,1.5664063c-0.0126953,0.2871094-0.0390625,0.5097656-0.0820313,0.6660156
		c-0.0419922,0.15625-0.0986328,0.2753906-0.1699219,0.359375c-0.0722656,0.0839844-0.1542969,0.1347656-0.2441406,0.1533203
		c-0.0898438,0.0175781-0.1953125,0.0263672-0.3144531,0.0263672c-0.2158203,0-0.3964844-0.0742188-0.5400391-0.2246094
		S80.34375,47.3242188,80.3193359,46.8320313z"/>
	<path class="st2" d="M85.1796875,35.2753906c0.2753906,0,0.53125,0.1083984,0.7646484,0.3242188
		c0.234375,0.2167969,0.3505859,0.4746094,0.3505859,0.7744141c0,0.2880859-0.1191406,0.5371094-0.359375,0.7470703
		S85.4257813,37.4355469,85.125,37.4355469c-0.2519531,0-0.4882813-0.1044922-0.7109375-0.3144531
		c-0.2216797-0.2099609-0.3320313-0.4707031-0.3320313-0.7832031c0-0.2880859,0.1103516-0.5371094,0.3320313-0.7470703
		C84.6367188,35.3808594,84.8916016,35.2753906,85.1796875,35.2753906z M84.3691406,46.7597656
		c-0.0234375-0.4433594-0.0449219-0.9511719-0.0625-1.5214844c-0.0175781-0.5693359-0.0273438-1.1962891-0.0273438-1.8808594
		c0-0.8515625,0.0058594-1.5800781,0.0175781-2.1865234s0.0449219-1.1044922,0.0996094-1.4941406
		s0.140625-0.6777344,0.2617188-0.8642578c0.1191406-0.1855469,0.2871094-0.2783203,0.5039063-0.2783203
		c0.203125,0,0.3828125,0.0712891,0.5390625,0.2158203s0.2460938,0.4560547,0.2705078,0.9355469
		c0.0712891,1.2597656,0.1083984,2.4785156,0.1083984,3.6542969c0,0.5996094-0.0126953,1.1611328-0.0371094,1.6835938
		c-0.0234375,0.5214844-0.046875,1.0947266-0.0712891,1.71875c-0.0126953,0.2871094-0.0390625,0.5097656-0.0810547,0.6660156
		c-0.0429688,0.15625-0.0996094,0.2753906-0.1708984,0.359375c-0.0722656,0.0839844-0.1533203,0.1347656-0.2431641,0.1533203
		s-0.1953125,0.0263672-0.3144531,0.0263672c-0.2167969,0-0.3964844-0.0742188-0.5410156-0.2246094
		C84.4775391,47.5732422,84.3935547,47.2519531,84.3691406,46.7597656z"/>
	<path class="st2" d="M92.4160156,38.6953125c0.3476563,0,0.6982422,0.03125,1.0527344,0.0908203
		c0.3535156,0.0595703,0.6748047,0.1435547,0.9628906,0.2519531c0.2871094,0.1083984,0.5214844,0.2402344,0.7011719,0.3955078
		c0.1806641,0.15625,0.2705078,0.3359375,0.2705078,0.5410156c0,0.5273438-0.2998047,0.7910156-0.8994141,0.7910156
		c-0.1445313,0-0.2792969-0.0205078-0.40625-0.0625c-0.125-0.0419922-0.2724609-0.0839844-0.4404297-0.1259766
		s-0.3779297-0.0839844-0.6298828-0.1259766s-0.5644531-0.0625-0.9355469-0.0625
		c-0.7929688,0-1.4042969,0.2695313-1.8359375,0.8085938c-0.4326172,0.5410156-0.6484375,1.2421875-0.6484375,2.1074219
		c0,0.9472656,0.21875,1.7089844,0.65625,2.2851563c0.4384766,0.5761719,1.0595703,0.8642578,1.8632813,0.8642578
		c0.5039063,0,0.9121094-0.0419922,1.2246094-0.1259766c0.3115234-0.0839844,0.5664063-0.1796875,0.7646484-0.2880859
		s0.3603516-0.2041016,0.4863281-0.2880859s0.2666016-0.1259766,0.4228516-0.1259766
		c0.2158203,0,0.3867188,0.0449219,0.5136719,0.1347656c0.125,0.0908203,0.1884766,0.2734375,0.1884766,0.5498047
		c0,0.2871094-0.1113281,0.5390625-0.3330078,0.7558594c-0.2226563,0.2148438-0.5019531,0.3955078-0.8369141,0.5390625
		C94.2207031,47.75,93.8583984,47.8574219,93.46875,47.9296875c-0.390625,0.0722656-0.7480469,0.1083984-1.0712891,0.1083984
		c-1.4521484,0-2.5927734-0.4013672-3.4199219-1.2060547c-0.828125-0.8037109-1.2421875-1.9433594-1.2421875-3.4199219
		c0-0.6367188,0.0986328-1.2392578,0.296875-1.8085938c0.1982422-0.5703125,0.4951172-1.0722656,0.8916016-1.5039063
		c0.3955078-0.4316406,0.8847656-0.7734375,1.4667969-1.0253906S91.6474609,38.6953125,92.4160156,38.6953125z"/>
	<path class="st2" d="M98.1933594,35.2753906c0.2753906,0,0.53125,0.1083984,0.7646484,0.3242188
		c0.234375,0.2167969,0.3505859,0.4746094,0.3505859,0.7744141c0,0.2880859-0.1191406,0.5371094-0.359375,0.7470703
		s-0.5097656,0.3144531-0.8105469,0.3144531c-0.2519531,0-0.4882813-0.1044922-0.7109375-0.3144531
		c-0.2216797-0.2099609-0.3320313-0.4707031-0.3320313-0.7832031c0-0.2880859,0.1103516-0.5371094,0.3320313-0.7470703
		C97.6503906,35.3808594,97.9052734,35.2753906,98.1933594,35.2753906z M97.3828125,46.7597656
		c-0.0234375-0.4433594-0.0449219-0.9511719-0.0625-1.5214844c-0.0175781-0.5693359-0.0273438-1.1962891-0.0273438-1.8808594
		c0-0.8515625,0.0058594-1.5800781,0.0175781-2.1865234s0.0449219-1.1044922,0.0996094-1.4941406
		s0.140625-0.6777344,0.2617188-0.8642578c0.1191406-0.1855469,0.2871094-0.2783203,0.5039063-0.2783203
		c0.203125,0,0.3828125,0.0712891,0.5390625,0.2158203s0.2460938,0.4560547,0.2705078,0.9355469
		c0.0712891,1.2597656,0.1083984,2.4785156,0.1083984,3.6542969c0,0.5996094-0.0126953,1.1611328-0.0371094,1.6835938
		c-0.0234375,0.5214844-0.046875,1.0947266-0.0712891,1.71875c-0.0126953,0.2871094-0.0390625,0.5097656-0.0810547,0.6660156
		c-0.0429688,0.15625-0.0996094,0.2753906-0.1708984,0.359375c-0.0722656,0.0839844-0.1533203,0.1347656-0.2431641,0.1533203
		s-0.1953125,0.0263672-0.3144531,0.0263672c-0.2167969,0-0.3964844-0.0742188-0.5410156-0.2246094
		C97.4912109,47.5732422,97.4072266,47.2519531,97.3828125,46.7597656z"/>
	<path class="st2" d="M102.8730469,46.7060547c-0.0361328-0.7558594-0.0566406-1.6533203-0.0625-2.6904297
		c-0.0068359-1.0390625-0.0097656-2.2167969-0.0097656-3.5371094c-0.1191406,0.0117188-0.2607422,0.0175781-0.4228516,0.0175781
		s-0.2910156,0-0.3867188,0c-0.2158203,0-0.4111328-0.0058594-0.5849609-0.0175781s-0.3271484-0.0488281-0.4589844-0.1083984
		c-0.1328125-0.0595703-0.234375-0.1474609-0.3066406-0.2607422c-0.0722656-0.1142578-0.1074219-0.2734375-0.1074219-0.4775391
		c0-0.5751953,0.4316406-0.8642578,1.2958984-0.8642578c0.1318359,0,0.2939453,0,0.4853516,0
		c0.1923828,0,0.3544922,0.0126953,0.4863281,0.0371094c0-0.6367188,0.0117188-1.1464844,0.0361328-1.53125
		c0.0244141-0.3828125,0.0693359-0.6796875,0.1357422-0.890625c0.0654297-0.2089844,0.1552734-0.3476563,0.2695313-0.4140625
		c0.1132813-0.0654297,0.2607422-0.0986328,0.4414063-0.0986328c0.1914063,0,0.3476563,0.0654297,0.4667969,0.1982422
		c0.1210938,0.1318359,0.2128906,0.2998047,0.2792969,0.5039063s0.1083984,0.4316406,0.1269531,0.6835938
		c0.0175781,0.2519531,0.0263672,0.4980469,0.0263672,0.7382813c0,0.1679688-0.0029297,0.3203125-0.0087891,0.4589844
		s-0.0097656,0.2607422-0.0097656,0.3691406c0.1679688-0.0488281,0.3427734-0.0751953,0.5224609-0.0810547
		c0.1806641-0.0068359,0.3544922-0.0087891,0.5224609-0.0087891c0.4433594,0,0.7851563,0.0683594,1.0253906,0.2070313
		c0.2402344,0.1376953,0.3603516,0.3632813,0.3603516,0.6738281c0,0.1933594-0.0419922,0.3457031-0.1259766,0.4589844
		c-0.0839844,0.1152344-0.1953125,0.2011719-0.3330078,0.2617188s-0.2998047,0.0996094-0.4853516,0.1171875
		c-0.1875,0.0175781-0.3876953,0.0273438-0.6035156,0.0273438c-0.1201172,0-0.2578125,0-0.4140625,0
		s-0.3007813-0.0117188-0.4316406-0.0371094c0,0.6367188,0,1.21875,0,1.7460938
		c0,0.5292969-0.0068359,1.0351563-0.0185547,1.5214844c-0.0126953,0.4863281-0.0244141,0.96875-0.0361328,1.4492188
		s-0.0292969,0.9902344-0.0537109,1.5292969c-0.0126953,0.2890625-0.0390625,0.5107422-0.0810547,0.6660156
		c-0.0429688,0.15625-0.0996094,0.2773438-0.1708984,0.3603516c-0.0722656,0.0839844-0.1533203,0.1357422-0.2431641,0.1533203
		s-0.1953125,0.0273438-0.3144531,0.0273438c-0.2167969,0-0.3994141-0.0751953-0.5488281-0.2255859
		C102.984375,47.5195313,102.8964844,47.1982422,102.8730469,46.7060547z"/>
	<path class="st2" d="M115.8515625,47.9472656c-0.1923828,0-0.3457031-0.0332031-0.4589844-0.0976563
		c-0.1152344-0.0664063-0.2011719-0.1542969-0.2617188-0.2617188s-0.1015625-0.2363281-0.1259766-0.3867188
		s-0.0419922-0.3085938-0.0537109-0.4765625c-0.3007813,0.3710938-0.6875,0.6835938-1.1611328,0.9355469
		s-1.0771484,0.3779297-1.8095703,0.3779297c-0.4667969,0-0.9443359-0.0693359-1.4306641-0.2070313
		c-0.4853516-0.1376953-0.9267578-0.3779297-1.3232422-0.7197266c-0.3955078-0.3417969-0.7197266-0.8007813-0.9716797-1.3769531
		s-0.3779297-1.3027344-0.3779297-2.1777344c0-0.6845703,0.0839844-1.3261719,0.2519531-1.9267578
		c0.1679688-0.5996094,0.4238281-1.125,0.765625-1.5751953c0.3417969-0.4492188,0.7705078-0.8066406,1.2871094-1.0703125
		c0.515625-0.2636719,1.1210938-0.3964844,1.8173828-0.3964844c0.6123047,0,1.1572266,0.1113281,1.6376953,0.3330078
		s0.9121094,0.5849609,1.296875,1.0888672c0-0.1435547,0.0058594-0.2910156,0.0175781-0.4414063
		c0.0117188-0.1494141,0.0449219-0.2871094,0.0986328-0.4140625c0.0537109-0.125,0.1416016-0.2265625,0.2607422-0.3046875
		c0.1201172-0.078125,0.2822266-0.1171875,0.4863281-0.1171875c0.1796875,0,0.3476563,0.0722656,0.5039063,0.2148438
		c0.15625,0.1445313,0.2460938,0.4570313,0.2705078,0.9365234c0.0361328,0.6357422,0.0634766,1.2060547,0.0810547,1.7099609
		s0.0273438,1.0263672,0.0273438,1.5664063c0,0.6601563-0.0068359,1.265625-0.0185547,1.8183594
		c-0.0126953,0.5517578-0.0419922,1.1396484-0.0898438,1.7636719c-0.0244141,0.2753906-0.0576172,0.4941406-0.0986328,0.65625
		c-0.0429688,0.1621094-0.09375,0.2832031-0.1542969,0.3603516c-0.0595703,0.0791016-0.1308594,0.1289063-0.2148438,0.1533203
		C116.0195313,47.9355469,115.9355469,47.9472656,115.8515625,47.9472656z M114.8789063,43.3759766
		c0-0.6240234-0.0927734-1.1337891-0.2792969-1.5302734c-0.1855469-0.3955078-0.4199219-0.7050781-0.7011719-0.9267578
		c-0.2832031-0.2216797-0.5859375-0.375-0.9091797-0.4589844c-0.3242188-0.0839844-0.6240234-0.1259766-0.9003906-0.1259766
		c-0.4316406,0-0.8007813,0.078125-1.1064453,0.234375c-0.3066406,0.15625-0.5556641,0.3691406-0.7480469,0.6386719
		c-0.1914063,0.2695313-0.3320313,0.5878906-0.421875,0.9541016s-0.1347656,0.7646484-0.1347656,1.1962891
		c0,1.0566406,0.2304688,1.8359375,0.6923828,2.3398438c0.4619141,0.5048828,1.0888672,0.7568359,1.8808594,0.7568359
		c0.4677734,0,0.8662109-0.0810547,1.1972656-0.2431641c0.3291016-0.1621094,0.5996094-0.3808594,0.8095703-0.65625
		c0.2099609-0.2773438,0.3662109-0.6035156,0.46875-0.9824219C114.828125,44.1953125,114.8789063,43.796875,114.8789063,43.3759766z
		"/>
	<path class="st2" d="M122.7988281,46.7597656c-0.0234375-0.4316406-0.0390625-0.8818359-0.0449219-1.3496094
		c-0.0058594-0.46875-0.0146484-0.9726563-0.0273438-1.5117188c-0.0117188-0.5410156-0.0175781-1.125-0.0175781-1.7558594
		c0-0.6289063,0-1.3339844,0-2.1152344c0-0.8515625,0.0058594-1.5800781,0.0175781-2.1865234
		c0.0126953-0.6054688,0.0488281-1.1005859,0.109375-1.4853516c0.0585938-0.3828125,0.1523438-0.6660156,0.2783203-0.8457031
		s0.296875-0.2695313,0.5126953-0.2695313c0.1083984,0,0.2099609,0.0117188,0.3066406,0.0351563
		c0.0957031,0.0253906,0.1796875,0.0761719,0.2519531,0.1542969s0.1347656,0.1914063,0.1884766,0.3417969
		s0.0869141,0.3447266,0.0986328,0.5839844c0.0244141,0.4326172,0.0429688,0.8164063,0.0546875,1.1523438
		s0.0234375,0.6699219,0.0351563,0.9990234c0.0126953,0.3310547,0.0185547,0.6728516,0.0185547,1.0263672s0,0.7529297,0,1.1972656
		c0,0.5390625,0,1.0556641,0,1.546875c0,0.4921875-0.0058594,0.9785156-0.0185547,1.4589844
		c-0.0117188,0.4804688-0.0234375,0.9658203-0.0351563,1.4570313c-0.0117188,0.4921875-0.0302734,1.0087891-0.0546875,1.5488281
		c-0.0117188,0.2871094-0.0410156,0.5097656-0.0898438,0.6660156c-0.0478516,0.15625-0.1074219,0.2753906-0.1796875,0.359375
		s-0.15625,0.1347656-0.2519531,0.1533203s-0.2041016,0.0263672-0.3242188,0.0263672
		c-0.2158203,0-0.4023438-0.0742188-0.5576172-0.2246094C122.9130859,47.5732422,122.8232422,47.2519531,122.7988281,46.7597656z"/>
	<path class="st2" d="M131.1689453,40.2080078c-0.4443359,0-0.8427734,0.0712891-1.1972656,0.2158203
		s-0.7529297,0.3603516-1.1962891,0.6484375c0,0.2519531,0,0.6210938,0,1.1074219
		c0,0.4853516-0.0068359,1.0136719-0.0185547,1.5839844c-0.0126953,0.5693359-0.0244141,1.1308594-0.0361328,1.6816406
		c-0.0117188,0.5527344-0.0351563,1.0146484-0.0722656,1.3867188c-0.0234375,0.2402344-0.0507813,0.4296875-0.0800781,0.5664063
		c-0.03125,0.1386719-0.0722656,0.2441406-0.1269531,0.3154297c-0.0537109,0.0722656-0.125,0.1171875-0.2158203,0.1357422
		c-0.0898438,0.0175781-0.2060547,0.0263672-0.3505859,0.0263672s-0.2617188-0.0087891-0.3515625-0.0263672
		c-0.0898438-0.0185547-0.1640625-0.0605469-0.2246094-0.1269531c-0.0605469-0.0654297-0.1074219-0.1640625-0.1445313-0.296875
		c-0.0351563-0.1318359-0.0654297-0.3115234-0.0898438-0.5400391c-0.0234375-0.2158203-0.0449219-0.5039063-0.0625-0.8642578
		c-0.0175781-0.359375-0.0332031-0.7519531-0.0449219-1.1787109c-0.0117188-0.4257813-0.0214844-0.8574219-0.0273438-1.2958984
		c-0.0058594-0.4375-0.0087891-0.8427734-0.0087891-1.2148438c0-0.6113281,0.0087891-1.109375,0.0263672-1.4941406
		c0.0185547-0.3837891,0.0507813-0.7255859,0.0996094-1.0253906c0.0722656-0.5039063,0.1679688-0.8222656,0.2880859-0.9550781
		c0.1201172-0.1308594,0.2822266-0.1972656,0.4853516-0.1972656c0.3007813,0,0.5253906,0.0839844,0.6757813,0.2519531
		c0.1494141,0.1679688,0.2421875,0.4433594,0.2792969,0.828125c0.4433594-0.3847656,0.9199219-0.6894531,1.4306641-0.9179688
		c0.5097656-0.2285156,1.0341797-0.3417969,1.5751953-0.3417969c0.515625,0,0.9863281,0.1191406,1.4121094,0.359375
		s0.7773438,0.6308594,1.0527344,1.1699219c0.1679688,0.3242188,0.2949219,0.6816406,0.3789063,1.0712891
		s0.1445313,0.8007813,0.1796875,1.2333984c0.0117188,0.1914063,0.0234375,0.3808594,0.0361328,0.5664063
		c0.0117188,0.1865234,0.0205078,0.3847656,0.0263672,0.59375c0.0058594,0.2109375,0.0097656,0.4472656,0.0097656,0.7109375
		c0,0.2646484,0,0.5761719,0,0.9365234c0,0.3837891-0.0058594,0.7441406-0.0175781,1.0800781
		c-0.0126953,0.3359375-0.0449219,0.6269531-0.0996094,0.8730469c-0.0537109,0.2460938-0.1464844,0.4384766-0.2792969,0.5751953
		c-0.1318359,0.1386719-0.3125,0.2070313-0.5390625,0.2070313c-0.5527344,0-0.8408203-0.2636719-0.8652344-0.7910156
		c0-0.0371094,0-0.1894531,0-0.4589844c0-0.2705078-0.0019531-0.5859375-0.0078125-0.9453125
		c-0.0068359-0.3603516-0.0126953-0.7265625-0.0185547-1.0976563c-0.0068359-0.3720703-0.0146484-0.6777344-0.0263672-0.9179688
		c-0.0126953-0.1923828-0.0273438-0.3994141-0.0449219-0.6210938c-0.0185547-0.2226563-0.0429688-0.4472656-0.0722656-0.6757813
		c-0.03125-0.2275391-0.0703125-0.4472656-0.1171875-0.65625c-0.0488281-0.2099609-0.1083984-0.3994141-0.1796875-0.5673828
		c-0.1689453-0.3955078-0.3789063-0.6474609-0.6308594-0.7558594S131.4570313,40.2080078,131.1689453,40.2080078z"/>
	<path class="st2" d="M137.3964844,40.5683594c-0.1318359,0.0117188-0.2607422,0.0205078-0.3867188,0.0273438
		c-0.1259766,0.0058594-0.2490234,0.0078125-0.3691406,0.0078125c-0.3964844,0-0.6933594-0.0625-0.890625-0.1884766
		c-0.1982422-0.1259766-0.296875-0.3691406-0.296875-0.7294922c0-0.2753906,0.0742188-0.4941406,0.2246094-0.65625
		s0.4472656-0.2431641,0.890625-0.2431641c0.2763672,0,0.5585938,0.0185547,0.8457031,0.0537109v-1.0439453
		c0-0.4794922,0.0546875-0.9365234,0.1621094-1.3681641c0.1083984-0.4316406,0.2763672-0.8125,0.5039063-1.1425781
		c0.2285156-0.3300781,0.5253906-0.59375,0.8916016-0.7919922s0.8134766-0.2978516,1.3408203-0.2978516
		c0.4804688,0,0.8164063,0.0703125,1.0078125,0.2070313c0.1923828,0.1386719,0.2890625,0.3632813,0.2890625,0.6757813
		s-0.1269531,0.5039063-0.3789063,0.5761719s-0.5390625,0.1074219-0.8632813,0.1074219
		c-0.3964844,0-0.6933594,0.1738281-0.8916016,0.5224609s-0.296875,0.7744141-0.296875,1.2783203v1.2597656
		c0.1552734-0.0361328,0.3085938-0.0566406,0.4589844-0.0634766C139.7871094,38.7529297,139.9462891,38.75,140.1152344,38.75
		c0.4433594,0,0.7578125,0.0722656,0.9443359,0.2158203s0.2792969,0.3720703,0.2792969,0.6845703
		c0,0.3955078-0.1259766,0.6503906-0.3779297,0.7646484s-0.5878906,0.1708984-1.0078125,0.1708984
		c-0.1083984,0-0.2314453,0-0.3691406,0c-0.1386719,0-0.2734375-0.0117188-0.4052734-0.0361328v6.1923828
		c0,0.2871094-0.0244141,0.5097656-0.0712891,0.6660156c-0.0488281,0.15625-0.1152344,0.2753906-0.1992188,0.359375
		s-0.1796875,0.1347656-0.2871094,0.1533203c-0.1083984,0.0185547-0.2226563,0.0263672-0.3417969,0.0263672
		c-0.1083984,0-0.2167969-0.0146484-0.3242188-0.0449219c-0.1083984-0.0292969-0.2011719-0.0898438-0.2792969-0.1796875
		s-0.1445313-0.2128906-0.1982422-0.3691406c-0.0537109-0.1552734-0.0810547-0.3535156-0.0810547-0.59375V40.5683594z"/>
	<path class="st2" d="M146.4326172,38.75c0.6845703,0,1.2958984,0.1054688,1.8359375,0.3144531
		c0.5400391,0.2109375,0.9990234,0.5078125,1.3779297,0.8916016c0.3769531,0.3837891,0.6679688,0.8525391,0.8720703,1.4033203
		c0.2041016,0.5527344,0.3056641,1.1699219,0.3056641,1.8544922c0,0.7568359-0.1171875,1.4345703-0.3505859,2.0341797
		s-0.5576172,1.109375-0.9716797,1.5292969c-0.4140625,0.4208984-0.90625,0.7441406-1.4765625,0.9726563
		s-1.1914063,0.3417969-1.8632813,0.3417969c-0.7314453,0-1.3769531-0.1259766-1.9345703-0.3779297
		s-1.0263672-0.59375-1.4033203-1.0263672c-0.3789063-0.4316406-0.6640625-0.9296875-0.8554688-1.4941406
		c-0.1914063-0.5634766-0.2880859-1.1572266-0.2880859-1.78125c0-0.6835938,0.1103516-1.3105469,0.3330078-1.8808594
		s0.5400391-1.0625,0.9541016-1.4765625s0.9150391-0.734375,1.5029297-0.9628906
		C145.0585938,38.8642578,145.7128906,38.75,146.4326172,38.75z M146.234375,46.4355469
		c0.4921875,0,0.9121094-0.0859375,1.2597656-0.2607422c0.3486328-0.1738281,0.6328125-0.4052734,0.8554688-0.6923828
		c0.2226563-0.2890625,0.3847656-0.6152344,0.4863281-0.9814453s0.1523438-0.7470703,0.1523438-1.1435547
		c0-0.4072266-0.0507813-0.7890625-0.1523438-1.1425781s-0.2578125-0.6621094-0.46875-0.9267578
		c-0.2089844-0.2646484-0.4794922-0.4707031-0.8095703-0.6210938c-0.3300781-0.1494141-0.7236328-0.2255859-1.1787109-0.2255859
		c-0.46875,0-0.8769531,0.078125-1.2246094,0.234375s-0.6386719,0.3691406-0.8730469,0.6386719
		c-0.2333984,0.2705078-0.4101563,0.5917969-0.5302734,0.9628906c-0.1201172,0.3730469-0.1806641,0.7744141-0.1806641,1.2070313
		c0,0.875,0.2255859,1.5869141,0.6757813,2.1328125C144.6953125,46.1630859,145.359375,46.4355469,146.234375,46.4355469z"/>
	<path class="st2" d="M152.5166016,46.7773438c-0.0478516-0.4199219-0.078125-0.9296875-0.0898438-1.5292969
		c-0.0126953-0.5996094-0.0185547-1.3261719-0.0185547-2.1777344c0-0.8398438,0.0039063-1.5175781,0.0097656-2.0341797
		s0.0390625-0.9716797,0.0986328-1.3681641c0.0595703-0.4921875,0.1533203-0.8105469,0.2783203-0.9541016
		c0.1269531-0.1435547,0.2910156-0.2158203,0.4960938-0.2158203c0.1435547,0,0.2724609,0.0117188,0.3867188,0.0361328
		c0.1132813,0.0244141,0.2158203,0.0751953,0.3056641,0.1533203c0.0908203,0.078125,0.1591797,0.1884766,0.2070313,0.3320313
		c0.0478516,0.1445313,0.0722656,0.3417969,0.0722656,0.59375c0,0.0488281,0.0058594,0.0966797,0.0185547,0.1445313
		c0,0.0488281,0.0019531,0.0996094,0.0078125,0.1533203s0.0097656,0.1162109,0.0097656,0.1884766
		c0.3242188-0.4072266,0.6933594-0.7558594,1.1074219-1.0429688c0.4140625-0.2890625,0.8847656-0.4326172,1.4121094-0.4326172
		c0.7080078,0,1.0625,0.2939453,1.0625,0.8818359c0,0.2167969-0.0449219,0.3964844-0.1347656,0.5400391
		s-0.2167969,0.2607422-0.3789063,0.3505859s-0.3476563,0.1601563-0.5576172,0.2070313
		c-0.2099609,0.0488281-0.4404297,0.0966797-0.6923828,0.1445313c-0.3847656,0.0722656-0.7441406,0.2070313-1.0800781,0.4042969
		c-0.3359375,0.1992188-0.5644531,0.4472656-0.6845703,0.7480469c0,0.2275391,0.0029297,0.3955078,0.0087891,0.5039063
		c0.0058594,0.1074219,0.0117188,0.1972656,0.0175781,0.2695313c0.0068359,0.0722656,0.0097656,0.1503906,0.0097656,0.234375
		s0,0.2158203,0,0.3964844c0,0.6113281-0.0117188,1.1845703-0.0361328,1.71875
		c-0.0244141,0.5332031-0.0478516,1.1132813-0.0712891,1.7363281c-0.0126953,0.2880859-0.0449219,0.5097656-0.0996094,0.6660156
		s-0.1201172,0.2763672-0.1982422,0.3603516s-0.1650391,0.1347656-0.2607422,0.1533203
		c-0.0957031,0.0175781-0.1914063,0.0263672-0.2880859,0.0263672c-0.3359375,0-0.5615234-0.0751953-0.6748047-0.2246094
		C152.6455078,47.5917969,152.5644531,47.2695313,152.5166016,46.7773438z"/>
	<path class="st2" d="M171.3447266,47.3359375c-0.0712891-0.2041016-0.1171875-0.4316406-0.1347656-0.6835938
		c-0.0185547-0.2519531-0.0273438-0.5644531-0.0273438-0.9365234c0-0.2636719,0.0029297-0.4707031,0.0087891-0.6201172
		c0.0058594-0.1503906,0.0097656-0.2832031,0.0097656-0.3964844c0-0.1142578,0.0019531-0.2285156,0.0087891-0.3417969
		c0.0058594-0.1142578,0.0087891-0.2734375,0.0087891-0.4775391c0-0.4199219-0.0087891-0.8427734-0.0273438-1.2685547
		c-0.0175781-0.4257813-0.0800781-0.8105469-0.1884766-1.1523438s-0.2763672-0.6210938-0.5048828-0.8369141
		c-0.2275391-0.2158203-0.5566406-0.3242188-0.9892578-0.3242188c-0.7314453,0-1.3017578,0.3486328-1.7099609,1.0439453
		c-0.4082031,0.6962891-0.6542969,1.8066406-0.7382813,3.3300781c-0.0234375,0.4804688-0.0351563,0.9179688-0.0351563,1.3144531
		c0,0.3955078-0.0253906,0.734375-0.0722656,1.0166016c-0.0488281,0.2822266-0.1347656,0.5009766-0.2617188,0.6572266
		c-0.125,0.15625-0.3320313,0.234375-0.6210938,0.234375c-0.2636719,0-0.4550781-0.0693359-0.5761719-0.2070313
		c-0.1191406-0.1386719-0.2070313-0.3457031-0.2597656-0.6210938c-0.0546875-0.2763672-0.0849609-0.6123047-0.0908203-1.0078125
		c-0.0058594-0.3964844-0.0263672-0.8583984-0.0634766-1.3867188c-0.0351563-0.5761719-0.0917969-1.1279297-0.1699219-1.65625
		c-0.078125-0.5273438-0.2050781-0.9921875-0.3789063-1.3945313s-0.4082031-0.7226563-0.7011719-0.9628906
		c-0.2949219-0.2402344-0.6699219-0.3603516-1.125-0.3603516c-0.4316406,0-0.765625,0.1054688-1,0.3154297
		c-0.2333984,0.2099609-0.4042969,0.4863281-0.5117188,0.828125c-0.1083984,0.3417969-0.171875,0.7255859-0.1894531,1.1513672
		c-0.0175781,0.4267578-0.0273438,0.8544922-0.0273438,1.2871094c0,0.2158203,0.0029297,0.3759766,0.0097656,0.4775391
		c0.0058594,0.1015625,0.0078125,0.1953125,0.0078125,0.2783203c0,0.0849609,0.0039063,0.1923828,0.0097656,0.3242188
		s0.0087891,0.3359375,0.0087891,0.6123047c0,0.3955078-0.0087891,0.7382813-0.0263672,1.0253906
		c-0.0185547,0.2880859-0.0634766,0.5341797-0.1357422,0.7382813c-0.0839844,0.2402344-0.1982422,0.3867188-0.3417969,0.4414063
		c-0.1435547,0.0537109-0.2763672,0.0800781-0.3955078,0.0800781c-0.3730469,0-0.6123047-0.1308594-0.7207031-0.3955078
		c-0.1074219-0.2636719-0.1679688-0.6474609-0.1796875-1.1513672c0-0.2763672-0.0039063-0.5859375-0.0097656-0.9277344
		s-0.0078125-0.7587891-0.0078125-1.2509766c0-0.2392578,0-0.4501953,0-0.6298828s0.0019531-0.3535156,0.0078125-0.5214844
		s0.0117188-0.3398438,0.0185547-0.5136719c0.0058594-0.1738281,0.0146484-0.375,0.0263672-0.6035156
		c0.0371094-0.7304688,0.1679688-1.3164063,0.3964844-1.7539063c0.2285156-0.4384766,0.4980469-0.7714844,0.8105469-1
		c0.3115234-0.2265625,0.6474609-0.375,1.0078125-0.4404297c0.359375-0.0654297,0.6894531-0.0986328,0.9902344-0.0986328
		c0.6474609,0,1.1933594,0.0957031,1.6376953,0.2871094c0.4443359,0.1933594,0.8066406,0.4453125,1.0888672,0.7558594
		c0.28125,0.3125,0.4921875,0.6660156,0.6298828,1.0625s0.2314453,0.7988281,0.2792969,1.2060547
		c0.0478516-0.3955078,0.1464844-0.7880859,0.296875-1.1787109c0.1494141-0.390625,0.3720703-0.7382813,0.6660156-1.0439453
		s0.6748047-0.5556641,1.1435547-0.7470703c0.4667969-0.1914063,1.0429688-0.2880859,1.7275391-0.2880859
		c0.3232422,0,0.6572266,0.0332031,0.9990234,0.0986328c0.3417969,0.0664063,0.65625,0.2128906,0.9453125,0.4414063
		c0.2871094,0.2285156,0.53125,0.5546875,0.7285156,0.9804688c0.1982422,0.4267578,0.3144531,1,0.3515625,1.71875
		c0.0117188,0.2285156,0.0205078,0.4296875,0.0263672,0.6035156s0.0117188,0.3457031,0.0185547,0.5136719
		c0.0058594,0.1679688,0.0087891,0.3417969,0.0087891,0.5214844s0,0.390625,0,0.6298828
		c0,0.4921875-0.0029297,0.9091797-0.0087891,1.2509766c-0.0068359,0.3417969-0.0097656,0.6513672-0.0097656,0.9277344
		c0,0.2275391-0.0087891,0.4375-0.0273438,0.6289063c-0.0175781,0.1923828-0.0566406,0.3544922-0.1162109,0.4863281
		c-0.0605469,0.1328125-0.1474609,0.2373047-0.2607422,0.3154297c-0.1152344,0.078125-0.2792969,0.1162109-0.4960938,0.1162109
		c-0.203125,0-0.359375-0.0380859-0.4667969-0.1162109C171.5068359,47.6630859,171.4160156,47.5273438,171.3447266,47.3359375z"/>
	<path class="st2" d="M182.4863281,47.9472656c-0.1914063,0-0.3447266-0.0332031-0.4589844-0.0976563
		c-0.1132813-0.0664063-0.2011719-0.1542969-0.2607422-0.2617188s-0.1025391-0.2363281-0.1259766-0.3867188
		s-0.0419922-0.3085938-0.0537109-0.4765625c-0.2998047,0.3710938-0.6865234,0.6835938-1.1611328,0.9355469
		s-1.0771484,0.3779297-1.8085938,0.3779297c-0.46875,0-0.9453125-0.0693359-1.4316406-0.2070313
		s-0.9267578-0.3779297-1.3222656-0.7197266c-0.3964844-0.3417969-0.7207031-0.8007813-0.9726563-1.3769531
		s-0.3779297-1.3027344-0.3779297-2.1777344c0-0.6845703,0.0839844-1.3261719,0.2519531-1.9267578
		c0.1679688-0.5996094,0.4228516-1.125,0.7646484-1.5751953c0.3417969-0.4492188,0.7714844-0.8066406,1.2871094-1.0703125
		s1.1220703-0.3964844,1.8183594-0.3964844c0.6113281,0,1.1582031,0.1113281,1.6386719,0.3330078
		c0.4785156,0.2216797,0.9111328,0.5849609,1.2949219,1.0888672c0-0.1435547,0.0058594-0.2910156,0.0185547-0.4414063
		c0.0117188-0.1494141,0.0449219-0.2871094,0.0986328-0.4140625c0.0546875-0.125,0.140625-0.2265625,0.2617188-0.3046875
		c0.1191406-0.078125,0.28125-0.1171875,0.4853516-0.1171875c0.1806641,0,0.3486328,0.0722656,0.5048828,0.2148438
		c0.1552734,0.1445313,0.2451172,0.4570313,0.2695313,0.9365234c0.0351563,0.6357422,0.0625,1.2060547,0.0800781,1.7099609
		c0.0185547,0.5039063,0.0273438,1.0263672,0.0273438,1.5664063c0,0.6601563-0.0058594,1.265625-0.0175781,1.8183594
		c-0.0117188,0.5517578-0.0429688,1.1396484-0.0898438,1.7636719c-0.0244141,0.2753906-0.0566406,0.4941406-0.0996094,0.65625
		c-0.0419922,0.1621094-0.0927734,0.2832031-0.1523438,0.3603516c-0.0605469,0.0791016-0.1328125,0.1289063-0.2167969,0.1533203
		C182.6542969,47.9355469,182.5703125,47.9472656,182.4863281,47.9472656z M181.5146484,43.3759766
		c0-0.6240234-0.0927734-1.1337891-0.2783203-1.5302734c-0.1865234-0.3955078-0.4208984-0.7050781-0.703125-0.9267578
		c-0.28125-0.2216797-0.5839844-0.375-0.9082031-0.4589844s-0.625-0.1259766-0.9003906-0.1259766
		c-0.4316406,0-0.8007813,0.078125-1.1074219,0.234375c-0.3046875,0.15625-0.5546875,0.3691406-0.7460938,0.6386719
		c-0.1923828,0.2695313-0.3339844,0.5878906-0.4238281,0.9541016S176.3125,42.9257813,176.3125,43.3574219
		c0,1.0566406,0.2304688,1.8359375,0.6933594,2.3398438c0.4619141,0.5048828,1.0888672,0.7568359,1.8808594,0.7568359
		c0.46875,0,0.8671875-0.0810547,1.1972656-0.2431641s0.5996094-0.3808594,0.8095703-0.65625
		c0.2099609-0.2773438,0.3662109-0.6035156,0.4677734-0.9824219
		C181.4628906,44.1953125,181.5146484,43.796875,181.5146484,43.3759766z"/>
	<path class="st2" d="M189.5253906,38.6953125c0.3476563,0,0.6982422,0.03125,1.0527344,0.0908203
		c0.3535156,0.0595703,0.6748047,0.1435547,0.9628906,0.2519531c0.2871094,0.1083984,0.5214844,0.2402344,0.7011719,0.3955078
		c0.1806641,0.15625,0.2705078,0.3359375,0.2705078,0.5410156c0,0.5273438-0.2998047,0.7910156-0.8994141,0.7910156
		c-0.1445313,0-0.2792969-0.0205078-0.40625-0.0625c-0.125-0.0419922-0.2724609-0.0839844-0.4404297-0.1259766
		s-0.3779297-0.0839844-0.6298828-0.1259766s-0.5644531-0.0625-0.9355469-0.0625
		c-0.7929688,0-1.4042969,0.2695313-1.8359375,0.8085938c-0.4326172,0.5410156-0.6484375,1.2421875-0.6484375,2.1074219
		c0,0.9472656,0.21875,1.7089844,0.65625,2.2851563c0.4384766,0.5761719,1.0595703,0.8642578,1.8632813,0.8642578
		c0.5039063,0,0.9121094-0.0419922,1.2246094-0.1259766c0.3115234-0.0839844,0.5664063-0.1796875,0.7646484-0.2880859
		s0.3603516-0.2041016,0.4863281-0.2880859s0.2666016-0.1259766,0.4228516-0.1259766
		c0.2158203,0,0.3867188,0.0449219,0.5136719,0.1347656c0.125,0.0908203,0.1884766,0.2734375,0.1884766,0.5498047
		c0,0.2871094-0.1113281,0.5390625-0.3330078,0.7558594c-0.2226563,0.2148438-0.5019531,0.3955078-0.8369141,0.5390625
		c-0.3369141,0.1445313-0.6992188,0.2519531-1.0888672,0.3242188c-0.390625,0.0722656-0.7480469,0.1083984-1.0712891,0.1083984
		c-1.4521484,0-2.5927734-0.4013672-3.4199219-1.2060547c-0.828125-0.8037109-1.2421875-1.9433594-1.2421875-3.4199219
		c0-0.6367188,0.0986328-1.2392578,0.296875-1.8085938c0.1982422-0.5703125,0.4951172-1.0722656,0.8916016-1.5039063
		c0.3955078-0.4316406,0.8847656-0.7734375,1.4667969-1.0253906S188.7568359,38.6953125,189.5253906,38.6953125z"/>
	<path class="st2" d="M195.3027344,35.2753906c0.2753906,0,0.53125,0.1083984,0.7646484,0.3242188
		c0.234375,0.2167969,0.3505859,0.4746094,0.3505859,0.7744141c0,0.2880859-0.1191406,0.5371094-0.359375,0.7470703
		s-0.5097656,0.3144531-0.8105469,0.3144531c-0.2519531,0-0.4882813-0.1044922-0.7109375-0.3144531
		c-0.2216797-0.2099609-0.3320313-0.4707031-0.3320313-0.7832031c0-0.2880859,0.1103516-0.5371094,0.3320313-0.7470703
		C194.7597656,35.3808594,195.0146484,35.2753906,195.3027344,35.2753906z M194.4921875,46.7597656
		c-0.0234375-0.4433594-0.0449219-0.9511719-0.0625-1.5214844c-0.0175781-0.5693359-0.0273438-1.1962891-0.0273438-1.8808594
		c0-0.8515625,0.0058594-1.5800781,0.0175781-2.1865234s0.0449219-1.1044922,0.0996094-1.4941406
		s0.140625-0.6777344,0.2617188-0.8642578c0.1191406-0.1855469,0.2871094-0.2783203,0.5039063-0.2783203
		c0.203125,0,0.3828125,0.0712891,0.5390625,0.2158203s0.2460938,0.4560547,0.2705078,0.9355469
		c0.0712891,1.2597656,0.1083984,2.4785156,0.1083984,3.6542969c0,0.5996094-0.0126953,1.1611328-0.0371094,1.6835938
		c-0.0234375,0.5214844-0.046875,1.0947266-0.0712891,1.71875c-0.0126953,0.2871094-0.0390625,0.5097656-0.0810547,0.6660156
		c-0.0429688,0.15625-0.0996094,0.2753906-0.1708984,0.359375c-0.0722656,0.0839844-0.1533203,0.1347656-0.2431641,0.1533203
		s-0.1953125,0.0263672-0.3144531,0.0263672c-0.2167969,0-0.3964844-0.0742188-0.5410156-0.2246094
		C194.6005859,47.5732422,194.5166016,47.2519531,194.4921875,46.7597656z"/>
	<path class="st2" d="M202.5917969,38.75c0.6845703,0,1.296875,0.1054688,1.8359375,0.3144531
		c0.5410156,0.2109375,1,0.5078125,1.3779297,0.8916016s0.6689453,0.8525391,0.8720703,1.4033203
		c0.2050781,0.5527344,0.3066406,1.1699219,0.3066406,1.8544922c0,0.7568359-0.1171875,1.4345703-0.3515625,2.0341797
		c-0.2333984,0.5996094-0.5576172,1.109375-0.9707031,1.5292969c-0.4140625,0.4208984-0.90625,0.7441406-1.4765625,0.9726563
		s-1.1914063,0.3417969-1.8632813,0.3417969c-0.7324219,0-1.3769531-0.1259766-1.9355469-0.3779297
		c-0.5566406-0.2519531-1.0253906-0.59375-1.4033203-1.0263672c-0.3779297-0.4316406-0.6630859-0.9296875-0.8544922-1.4941406
		c-0.1923828-0.5634766-0.2890625-1.1572266-0.2890625-1.78125c0-0.6835938,0.1113281-1.3105469,0.3339844-1.8808594
		c0.2216797-0.5703125,0.5390625-1.0625,0.953125-1.4765625s0.9160156-0.734375,1.5039063-0.9628906
		C201.21875,38.8642578,201.8730469,38.75,202.5917969,38.75z M202.3945313,46.4355469
		c0.4921875,0,0.9121094-0.0859375,1.2597656-0.2607422c0.3476563-0.1738281,0.6328125-0.4052734,0.8554688-0.6923828
		c0.2216797-0.2890625,0.3837891-0.6152344,0.4863281-0.9814453c0.1015625-0.3662109,0.1523438-0.7470703,0.1523438-1.1435547
		c0-0.4072266-0.0507813-0.7890625-0.1523438-1.1425781c-0.1025391-0.3535156-0.2587891-0.6621094-0.46875-0.9267578
		s-0.4804688-0.4707031-0.8105469-0.6210938c-0.3300781-0.1494141-0.7226563-0.2255859-1.1777344-0.2255859
		c-0.46875,0-0.8769531,0.078125-1.2246094,0.234375s-0.6386719,0.3691406-0.8730469,0.6386719
		c-0.234375,0.2705078-0.4111328,0.5917969-0.53125,0.9628906c-0.1191406,0.3730469-0.1796875,0.7744141-0.1796875,1.2070313
		c0,0.875,0.2246094,1.5869141,0.6748047,2.1328125S201.5185547,46.4355469,202.3945313,46.4355469z M201.1523438,37.2919922
		c-0.1328125-0.0244141-0.2607422-0.0693359-0.3867188-0.1357422c-0.1259766-0.0644531-0.1894531-0.1884766-0.1894531-0.3681641
		c0.0117188-0.1435547,0.0996094-0.3115234,0.2617188-0.5039063s0.3623047-0.3876953,0.6025391-0.5849609
		c0.2392578-0.1982422,0.5097656-0.390625,0.8095703-0.5761719c0.3007813-0.1855469,0.5976563-0.3515625,0.8916016-0.4951172
		s0.5673828-0.2607422,0.8193359-0.3505859s0.4550781-0.1347656,0.6113281-0.1347656
		c0.2041016,0,0.3808594,0.0595703,0.53125,0.1796875c0.1503906,0.1191406,0.2246094,0.2939453,0.2246094,0.5214844
		c0,0.1445313-0.078125,0.3027344-0.234375,0.4765625c-0.1552734,0.1748047-0.359375,0.3515625-0.6113281,0.53125
		s-0.5341797,0.3574219-0.8457031,0.53125c-0.3125,0.1738281-0.6210938,0.3271484-0.9277344,0.4589844
		c-0.3056641,0.1328125-0.5966797,0.2402344-0.8730469,0.3242188C201.5605469,37.25,201.3320313,37.2919922,201.1523438,37.2919922z
		"/>
	<path class="st2" d="M212.8164063,40.2080078c-0.4443359,0-0.84375,0.0712891-1.1972656,0.2158203
		s-0.7529297,0.3603516-1.1972656,0.6484375c0,0.2519531,0,0.6210938,0,1.1074219
		c0,0.4853516-0.0058594,1.0136719-0.0175781,1.5839844c-0.0117188,0.5693359-0.0244141,1.1308594-0.0361328,1.6816406
		c-0.0126953,0.5527344-0.0361328,1.0146484-0.0712891,1.3867188c-0.0253906,0.2402344-0.0517578,0.4296875-0.0820313,0.5664063
		c-0.0292969,0.1386719-0.0722656,0.2441406-0.125,0.3154297c-0.0546875,0.0722656-0.1269531,0.1171875-0.2167969,0.1357422
		c-0.0898438,0.0175781-0.2070313,0.0263672-0.3505859,0.0263672s-0.2607422-0.0087891-0.3505859-0.0263672
		c-0.0908203-0.0185547-0.1660156-0.0605469-0.2255859-0.1269531c-0.0595703-0.0654297-0.1083984-0.1640625-0.1435547-0.296875
		c-0.0371094-0.1318359-0.0664063-0.3115234-0.0898438-0.5400391c-0.0253906-0.2158203-0.0449219-0.5039063-0.0634766-0.8642578
		c-0.0185547-0.359375-0.0332031-0.7519531-0.0449219-1.1787109c-0.0126953-0.4257813-0.0214844-0.8574219-0.0273438-1.2958984
		c-0.0058594-0.4375-0.0087891-0.8427734-0.0087891-1.2148438c0-0.6113281,0.0087891-1.109375,0.0273438-1.4941406
		c0.0175781-0.3837891,0.0507813-0.7255859,0.0986328-1.0253906c0.0712891-0.5039063,0.1679688-0.8222656,0.2880859-0.9550781
		c0.1191406-0.1308594,0.28125-0.1972656,0.4863281-0.1972656c0.2988281,0,0.5244141,0.0839844,0.6738281,0.2519531
		c0.1503906,0.1679688,0.2441406,0.4433594,0.2792969,0.828125c0.4443359-0.3847656,0.921875-0.6894531,1.4316406-0.9179688
		s1.0351563-0.3417969,1.5742188-0.3417969c0.5166016,0,0.9873047,0.1191406,1.4140625,0.359375
		c0.4257813,0.2402344,0.7763672,0.6308594,1.0527344,1.1699219c0.1679688,0.3242188,0.2929688,0.6816406,0.3779297,1.0712891
		c0.0830078,0.3896484,0.1435547,0.8007813,0.1796875,1.2333984c0.0117188,0.1914063,0.0244141,0.3808594,0.0361328,0.5664063
		c0.0117188,0.1865234,0.0214844,0.3847656,0.0273438,0.59375c0.0058594,0.2109375,0.0087891,0.4472656,0.0087891,0.7109375
		c0,0.2646484,0,0.5761719,0,0.9365234c0,0.3837891-0.0068359,0.7441406-0.0185547,1.0800781
		s-0.0449219,0.6269531-0.0986328,0.8730469s-0.1474609,0.4384766-0.2783203,0.5751953
		c-0.1328125,0.1386719-0.3125,0.2070313-0.5410156,0.2070313c-0.5517578,0-0.8398438-0.2636719-0.8632813-0.7910156
		c0-0.0371094,0-0.1894531,0-0.4589844c0-0.2705078-0.0039063-0.5859375-0.0097656-0.9453125
		c-0.0058594-0.3603516-0.0117188-0.7265625-0.0175781-1.0976563c-0.0058594-0.3720703-0.015625-0.6777344-0.0273438-0.9179688
		c-0.0117188-0.1923828-0.0273438-0.3994141-0.0449219-0.6210938c-0.0175781-0.2226563-0.0419922-0.4472656-0.0722656-0.6757813
		c-0.0292969-0.2275391-0.0683594-0.4472656-0.1162109-0.65625c-0.0478516-0.2099609-0.1083984-0.3994141-0.1806641-0.5673828
		c-0.1679688-0.3955078-0.3769531-0.6474609-0.6289063-0.7558594S213.1044922,40.2080078,212.8164063,40.2080078z"/>
</g>
</svg>
